<?xml version="1.0" standalone="yes"?>
<svg xmlns="http://www.w3.org/2000/svg" width="1024" height="1024">
<path style="fill:#fbfdfc; stroke:none;" d="M0 0L0 994L6 994L7 1024L1024 1024L1024 0L0 0z"/>
<path style="fill:#22bccc; stroke:none;" d="M464 256L464 257L479 260L474 261L468 264L468 271L473.974 286L484 302L482 301L482 302C487.199 305.383 490.353 312.558 497 312L495 314L495 315L505 316L505 313C516.217 311.618 523.933 319.205 535.039 319.947C569.022 322.216 607.711 314.848 635.985 338.616C651.586 351.73 659.914 373.654 669.872 391C672.277 395.189 678 407.784 683.96 406.94C691.118 405.926 696.053 384.866 698.4 379C713.305 341.731 694.148 304.423 664 280.669C632.062 255.504 598.782 255 560 255C527.962 255 496.059 256 464 256z"/>
<path style="fill:#ba2b89; stroke:none;" d="M497 319L496 312L482 302L482 301L484 302L484 301C480.645 295.775 476.447 290.756 473.974 285C471.57 279.407 474.313 274.419 468 271L468 264C461.753 262.374 457.536 257.412 450.996 256.429C405.204 249.546 359.917 271.167 335.684 310C321.645 332.497 317.11 360.96 326.811 386C329.098 391.902 333.133 405.456 340.015 407.288C347.128 409.181 352.235 396.607 355.061 392C366.178 373.875 374.776 351.394 391 337.185C419.612 312.128 462.59 322.673 497 319z"/>
<path style="fill:#254692; stroke:none;" d="M496 312L497 313L496 312M507 312L508 313L507 312M505.667 313.333L506.333 313.667L505.667 313.333z"/>
<path style="fill:#ba2b89; stroke:none;" d="M497 314L498 315L497 314z"/>
<path style="fill:#254692; stroke:none;" d="M498 314L499 315L498 314M504 314L505 315L504 314M500 316L500 317L504 316L500 316z"/>
<path style="fill:#22bccc; stroke:none;" d="M502 316L503 317L502 316z"/>
<path style="fill:#254692; stroke:none;" d="M497 317L497 318L500 318L497 317M528 318L528 319L531 319L528 318M485 319L485 320L493 320L485 319z"/>
<path style="fill:#22bccc; stroke:none;" d="M494 319L495 320L494 319M472.667 320.333L473.333 320.667L472.667 320.333M527 325L527 328C530.91 329.224 533.34 332.177 531 336L536 360L541 361L541 362L534 364L534 365L544 369L548 368L548 369L546 369L546 370L555 371L555 372L551 371L551 372L557 372L556 374L559 373L558 375L568 379L579 394L581 393L580 396L582 395L582 396C581.366 398.579 581.181 400 584 400L587 411L596 411L596 408L599 433L601 438L607 440L606 447C614.739 450.258 616.814 466.675 619.866 475C620.951 477.96 620.75 484.469 624 485L625 500L619 505L616 504L614 507L616 507L616 508L614 508L614 509L618 508L616 507L616 506L620 507L622 504L621 506L625 504L626 500L626 503L633 496C637.102 495.298 639.298 493.102 640 489L643 488L642 486L645 481L650 472C657.86 467.572 672.068 442.014 672 433C676.349 429.94 676.177 422.93 675.961 418C675.328 403.582 664.445 389.185 657.576 377C650.629 364.677 644.14 350.641 632.999 341.465C605.835 319.089 559.927 325 527 325z"/>
<path style="fill:#ba2b89; stroke:none;" d="M403 506C406.604 512.334 416.323 513.802 423 514.928C440.835 517.935 458.959 517 477 517L476 515L493 515L488 510L487 506L489 507L489 506L485 506L486 504L476 495L472 489L470 487L471 484L468 483L466 481C465.408 476.905 464.303 473.797 460 473C458.719 469.595 457.781 466.579 454 466L454 462L453 461L451 462L451 458L449 459L450 456L448 453L446 454L447 451L444 451L445 448L442 442L440 442L441 440L438 439L439 436C425.599 432.376 417.395 457.8 413 468L411 468C409.911 464.733 410.347 462.337 413 463L412 460C417.182 456.605 422.585 445.071 423 439L425 434L427 435L426 432L428 433L429 431L430 418L429 418L429 424L428 424L429 414L427 415L427 414C426.756 402.329 414.537 387.896 410 377C420.372 388.987 423.756 408.811 441 410L442 408L441 405L451.105 390L462 376L488 365L517 363L517 362L513 362L513 361L519 361L517 354L513 353L519 352L520 335L516 335L517 332L512 334L512 333L514 332C499.521 323.373 482.3 326 466 326C439.023 326 408.872 323.841 388.326 345.001C378.183 355.446 373.131 369.682 365.799 382C358.752 393.84 349.064 406.799 348.091 421C347.364 431.622 353.534 440.212 358.573 449C366.565 462.942 374.193 477.816 383.348 490.999C387.603 497.127 395.054 505.817 403 506z"/>
<path style="fill:#22bccc; stroke:none;" d="M501 326L502 327L501 326M524 326L525 327L524 326z"/>
<path style="fill:#254692; stroke:none;" d="M512 331L512 332C513.96 332.653 514.554 333 512 333L512 334L517 332L516 335L520 335L519 352L513 353L517 354L519 361L513 361L513 362L517 362L517 363L513 363L513 364L544 368L544 367L534 365L534 364L541 362L541 361L536 360L531 336C537.176 334.765 528.013 325.947 528 326L512 331z"/>
<path style="fill:#22bccc; stroke:none;" d="M522 327L523 328L522 327M519 328L520 329L519 328M516 330L517 331L516 330M519 330L520 331L519 330M514 331L515 332L514 331z"/>
<path style="fill:#ba2b89; stroke:none;" d="M519.333 332.667L519.667 333.333L519.333 332.667z"/>
<path style="fill:#254692; stroke:none;" d="M513.667 335.333L514.333 335.667L513.667 335.333z"/>
<path style="fill:#22bccc; stroke:none;" d="M535 361L536 362L535 361z"/>
<path style="fill:#254692; stroke:none;" d="M543 362L538 363L538 364L544 363L543 362M497 363L498 364L497 363M502.667 363.333L503.333 363.667L502.667 363.333M492 364L492 365L496 365L492 364z"/>
<path style="fill:#22bccc; stroke:none;" d="M498 364L499 365L498 364M525.667 364.333L526.333 364.667L525.667 364.333z"/>
<path style="fill:#29385e; stroke:none;" d="M488 365L489 366L488 365z"/>
<path style="fill:#22bccc; stroke:none;" d="M532 365L533 366L532 365M536.667 366.333L537.333 366.667L536.667 366.333z"/>
<path style="fill:#29385e; stroke:none;" d="M480 367L481 368L480 367z"/>
<path style="fill:#254692; stroke:none;" d="M481 367L482 368L481 367z"/>
<path style="fill:#22bccc; stroke:none;" d="M540.667 367.333L541.333 367.667L540.667 367.333z"/>
<path style="fill:#29385e; stroke:none;" d="M477 368L478 369L477 368z"/>
<path style="fill:#254692; stroke:none;" d="M478.667 368.333L479.333 368.667L478.667 368.333z"/>
<path style="fill:#22bccc; stroke:none;" d="M480 368L481 369L480 368M511 368L512 369L511 368z"/>
<path style="fill:#254692; stroke:none;" d="M545 368L545 369L548 369L545 368z"/>
<path style="fill:#22bccc; stroke:none;" d="M495 369L496 370L495 369z"/>
<path style="fill:#ba2b89; stroke:none;" d="M456 456C456.919 463.189 470.53 481.356 477 485L480 489L484 493L484 494L482 495L494 503L499 508L498 506L499 506L500 509L504 510L504 511L508 510L507 512L513 512C515.8 509.085 519.757 504.923 524 506L518 498L521.259 461.089L531 432C552.015 435.178 542.729 400.287 544 388L542 388C543.785 384.781 545.725 380.013 541 379L541 378L544 378L544 374L541 375L542 372L534 370C508.441 372.971 486.352 364.954 463.001 381.789C446.461 393.713 441.196 418.153 445.654 437C447.251 443.747 449.578 452.477 456 456z"/>
<path style="fill:#22bccc; stroke:none;" d="M528 369L529 370L528 369z"/>
<path style="fill:#254692; stroke:none;" d="M548 369L548 370L555 372L555 371L548 369M529 370L529 371L533 371L529 370z"/>
<path style="fill:#22bccc; stroke:none;" d="M549 370L550 371L549 370z"/>
<path style="fill:#254692; stroke:none;" d="M528 371L529 372L528 371M534 371L534 372L541 373L534 371z"/>
<path style="fill:#22bccc; stroke:none;" d="M538 371L539 372L538 371z"/>
<path style="fill:#254692; stroke:none;" d="M555.667 372.333L556.333 372.667L555.667 372.333M536.667 373.333L537.333 373.667L536.667 373.333M541 375L544 374L541 378L541 379L544 379L542 388L544 388C542.674 394.2 541.197 414.645 549 416L552 424L556 424L560 436C555.747 441.129 564.713 451.648 566 457C561.89 457.877 560.865 461.037 561 465C557.344 464.869 555.738 465.775 554 469L555 469L559 466L556 472L557 472L560 469L559 471L561 467L564 466L563 464L572 458L575 454L576 452L575 450L577 450L576 448L578 448L581 441L581 435L583 435L582 427L584 428L583 412C580.564 412 581.385 411.214 582 409L579 408L580 404L579 401L577 402L578 399L577 397L575 397C574.1 387.198 560.252 379.507 552 376.015C548.581 374.568 543.875 371.841 541 375z"/>
<path style="fill:#22bccc; stroke:none;" d="M545 373L546 374L545 373z"/>
<path style="fill:#254692; stroke:none;" d="M557.667 373.333L558.333 373.667L557.667 373.333M559 374L560 375L559 374z"/>
<path style="fill:#22bccc; stroke:none;" d="M550 375L551 376L550 375z"/>
<path style="fill:#29385e; stroke:none;" d="M462 376L463 377L462 376z"/>
<path style="fill:#22bccc; stroke:none;" d="M553 376L554 377L553 376M555 377L556 378L555 377M557 378L558 379L557 378M558 379L559 380L558 379z"/>
<path style="fill:#254692; stroke:none;" d="M567 379L568 380L567 379z"/>
<path style="fill:#22bccc; stroke:none;" d="M560 380L561 381L560 380M561 381L562 382L561 381z"/>
<path style="fill:#254692; stroke:none;" d="M570 381L571 382L570 381z"/>
<path style="fill:#ba2b89; stroke:none;" d="M557 382L558 383L557 382z"/>
<path style="fill:#22bccc; stroke:none;" d="M563 382L564 383L563 382z"/>
<path style="fill:#254692; stroke:none;" d="M573 384L576 387L573 384z"/>
<path style="fill:#22bccc; stroke:none;" d="M567 385L568 386L567 385M569 387L570 388L569 387M571 389L572 390L571 389z"/>
<path style="fill:#254692; stroke:none;" d="M579 392L580 393L579 392z"/>
<path style="fill:#22bccc; stroke:none;" d="M574 393L575 394L574 393z"/>
<path style="fill:#254692; stroke:none;" d="M580.333 393.667L580.667 394.333L580.333 393.667M581.333 395.667L581.667 396.333L581.333 395.667z"/>
<path style="fill:#29385e; stroke:none;" d="M575 396L576 397L575 396z"/>
<path style="fill:#22bccc; stroke:none;" d="M576 396L577 397L576 396z"/>
<path style="fill:#29385e; stroke:none;" d="M576 398L577 399L576 398z"/>
<path style="fill:#22bccc; stroke:none;" d="M577 398L578 399L577 398z"/>
<path style="fill:#29385e; stroke:none;" d="M577.333 400.667L577.667 401.333L577.333 400.667z"/>
<path style="fill:#254692; stroke:none;" d="M583.333 400.667L583.667 401.333L583.333 400.667z"/>
<path style="fill:#29385e; stroke:none;" d="M578.333 402.667L578.667 403.333L578.333 402.667z"/>
<path style="fill:#254692; stroke:none;" d="M584 402L585 403L584 402z"/>
<path style="fill:#22bccc; stroke:none;" d="M579 403L580 404L579 403z"/>
<path style="fill:#254692; stroke:none;" d="M585.333 404.667L585.667 405.333L585.333 404.667z"/>
<path style="fill:#29385e; stroke:none;" d="M441 405L442 406L441 405M579 405L581 408L579 405z"/>
<path style="fill:#254692; stroke:none;" d="M580 406L581 407L580 406z"/>
<path style="fill:#29385e; stroke:none;" d="M440 408L441 409L440 408z"/>
<path style="fill:#254692; stroke:none;" d="M590 408L591 409L590 408M596 408L597 409L596 408z"/>
<path style="fill:#29385e; stroke:none;" d="M439 409L440 410L439 409M580 409L581 410L580 409z"/>
<path style="fill:#254692; stroke:none;" d="M588 409C590.1 411.403 592.9 411.403 595 409L588 409z"/>
<path style="fill:#29385e; stroke:none;" d="M425 410L426 411L425 410M433 410L433 411L439 411L433 410M581 410L581 413L582 413L581 410z"/>
<path style="fill:#254692; stroke:none;" d="M598 411L599 412L598 411z"/>
<path style="fill:#29385e; stroke:none;" d="M427.333 413.667L427.667 414.333L427.333 413.667M576 413L578 416L576 413M582 413L582 416L583 416L582 413M428 415L428 424L429 424L428 415z"/>
<path style="fill:#254692; stroke:none;" d="M597 415L599 442C596.691 439.845 594.743 434.867 591.11 434.867C585.806 434.868 580.065 450.731 580 455L577 456L578 459L575 459L575 463L566 469L564 475L557 480L558 483L559 483L559 479L562 475L566 475L562 480L567 479L568 479L567 476L571 474C571.683 482.646 570.707 494.245 567.667 503C566.59 506.102 562.066 511.402 567 512L567 513L560 513L560 514L568 514L568 515L556 515L556 516L579 517L579 516L576 516L576 515L588 516C588 512.327 591.361 515.087 594 514.667C601.38 513.49 608.86 510.63 616 508L614 506L616 504L619 505L625 500L624 485C620.677 485 621.322 477.965 620.333 475C617.688 467.065 614.522 448.57 606 447L607 440L601 438L599 433L597 415z"/>
<path style="fill:#29385e; stroke:none;" d="M544 416C543.993 426.336 542.408 432.115 531 432C521.067 453.365 522.256 475.092 518 498L524 506L522 504L513 510L513 511C533.436 507.481 551.032 486.572 560 469L557 472L556 472L559 466L555 469L554 469L561 465C561 461.352 562.583 456.146 566 457C565.112 451.106 556.302 441.652 560 436L556 424L552 424L549 416L544 416z"/>
<path style="fill:#22bccc; stroke:none;" d="M583.333 416.667L583.667 417.333L583.333 416.667z"/>
<path style="fill:#29385e; stroke:none;" d="M576 419L577 420L576 419M428 426L428 429L429 429L428 426M582 427L582 433L583 433L582 427M560 428L560 430L562 430L562 428L560 428z"/>
<path style="fill:#22bccc; stroke:none;" d="M583.333 428.667L583.667 429.333L583.333 428.667z"/>
<path style="fill:#29385e; stroke:none;" d="M538 429L539 430L538 429M427 431L428 432L427 431M426.333 432.667L426.667 433.333L426.333 432.667M560 432L561 433L560 432M579 432L580 433L579 432z"/>
<path style="fill:#22bccc; stroke:none;" d="M597 432L599 442L597 432M433 433L434 434L433 433z"/>
<path style="fill:#254692; stroke:none;" d="M672 433L673 434L672 433z"/>
<path style="fill:#ba2b89; stroke:none;" d="M349 540C349.998 545.722 360.269 556.019 366 557C367.672 560.386 369.194 561.833 373 562L388 572L391 571L390 573L400 575C402.189 577.874 404.636 577.842 408 577L416 578C416.664 581.986 431.163 578.822 435 579.13C451.247 580.433 476.073 580.434 479 561L480 561L480 564L481 564L485 536L482 536C481.899 527.536 477.113 528.321 470 527L470 526L484 526L484 523L443.09 522.741L417 519L402 510.846L380 495L376 489L366 468L364 469C364.082 459.6 353.554 447.018 348.13 439.58C345.498 435.972 341.774 432.248 337.213 435.604C332.862 438.805 330.025 446.226 327.782 451C317.366 473.16 321.375 500.32 333.603 521C337.626 527.803 341.6 536.476 349 540z"/>
<path style="fill:#29385e; stroke:none;" d="M425.333 434.667L425.667 435.333L425.333 434.667M432 434L432 435L436 435L432 434z"/>
<path style="fill:#22bccc; stroke:none;" d="M589 434L590 435L589 434M592 434L592 435L595 436L592 434z"/>
<path style="fill:#29385e; stroke:none;" d="M436 435L437 436L436 435M581.333 435.667L581.667 436.333L581.333 435.667z"/>
<path style="fill:#22bccc; stroke:none;" d="M582 435L583 436L582 435M654 479L644 492L646 496L643 494L642 494L639 502L645 500L646 496L647 496L648 501L645 502L648 503C648 510.572 650.341 517.694 650.505 525C650.763 536.392 646.054 548.482 642 559L645 560L631 572L637 574L635 571L639 573L641 572L640 570L643 571L642 569L645 570L644 568L645 568L651 567L650 565L651 565C655.613 564.615 658.903 562.104 661 558L664 556L668 552C674.168 550.254 681.409 542.435 682 536L687 532L686 529C688.565 529.061 689.208 527.497 689 525L691 522L693 522L692 520L695 519L694 516C698.461 513.076 699.85 506.855 701.562 502C707.376 485.51 706.073 468.17 697.688 453C694.688 447.574 687 433.035 679.093 435.786C671.974 438.264 666.36 453.768 662.861 460C659.702 465.627 654.136 472.488 654 479z"/>
<path style="fill:#29385e; stroke:none;" d="M437 436L438 437L437 436z"/>
<path style="fill:#22bccc; stroke:none;" d="M595 436L596 437L595 436z"/>
<path style="fill:#29385e; stroke:none;" d="M438 437L440 440L438 437z"/>
<path style="fill:#22bccc; stroke:none;" d="M587 437L588 438L587 437M599 437L600 438L599 437z"/>
<path style="fill:#29385e; stroke:none;" d="M560.333 438.667L560.667 439.333L560.333 438.667z"/>
<path style="fill:#22bccc; stroke:none;" d="M581 438L582 439L581 438z"/>
<path style="fill:#29385e; stroke:none;" d="M347 439L348 440L347 439M423 439L424 440L423 439M577 439L578 440L577 439M580 439L581 440L580 439M422 440L423 441L422 440M440 441L441 442L440 441M579 441L577 447L578 447L579 441z"/>
<path style="fill:#22bccc; stroke:none;" d="M585 441L586 442L585 441z"/>
<path style="fill:#29385e; stroke:none;" d="M441 443L442 444L441 443z"/>
<path style="fill:#22bccc; stroke:none;" d="M579 443L580 444L579 443z"/>
<path style="fill:#254692; stroke:none;" d="M578 445L579 446L578 445z"/>
<path style="fill:#22bccc; stroke:none;" d="M583 445L584 446L583 445z"/>
<path style="fill:#29385e; stroke:none;" d="M442 446L443 447L442 446M418 447L419 448L418 447M443 447L444 448L443 447M569 448L568 451L569 451L569 448M576 448L577 449L576 448z"/>
<path style="fill:#22bccc; stroke:none;" d="M581.333 448.667L581.667 449.333L581.333 448.667z"/>
<path style="fill:#29385e; stroke:none;" d="M444.333 449.667L444.667 450.333L444.333 449.667M574 449L575 450L574 449M575 450L576 451L575 450z"/>
<path style="fill:#22bccc; stroke:none;" d="M576 450L577 451L576 450z"/>
<path style="fill:#29385e; stroke:none;" d="M416 451L417 452L416 451M445 451L446 452L445 451M570 451L571 452L570 451M446.333 452.667L446.667 453.333L446.333 452.667M574 452L575 453L574 452z"/>
<path style="fill:#22bccc; stroke:none;" d="M579 452L580 453L579 452z"/>
<path style="fill:#29385e; stroke:none;" d="M415 453L416 454L415 453M568 453L569 454L568 453M571 453L572 454L571 453M573 453L571 457L573 453M447 454L448 455L447 454z"/>
<path style="fill:#22bccc; stroke:none;" d="M578 454L579 455L578 454z"/>
<path style="fill:#29385e; stroke:none;" d="M579 454L580 455L579 454M448 455L449 456L448 455M569 455L570 456L569 455M455 456L456 457L455 456z"/>
<path style="fill:#254692; stroke:none;" d="M561 456L560 459L561 456z"/>
<path style="fill:#22bccc; stroke:none;" d="M572 456L573 457L572 456z"/>
<path style="fill:#29385e; stroke:none;" d="M413 457L414 458L413 457M449.333 457.667L449.667 458.333L449.333 457.667M568 457L567 459L568 457M570 457L568 461L570 457z"/>
<path style="fill:#22bccc; stroke:none;" d="M576 457L577 458L576 457z"/>
<path style="fill:#29385e; stroke:none;" d="M577.333 457.667L577.667 458.333L577.333 457.667M565.333 458.667L565.667 459.333L565.333 458.667M450 459L451 460L450 459z"/>
<path style="fill:#22bccc; stroke:none;" d="M570 459L571 460L570 459z"/>
<path style="fill:#29385e; stroke:none;" d="M412.333 460.667L412.667 461.333L412.333 460.667M451.333 460.667L451.667 461.333L451.333 460.667z"/>
<path style="fill:#22bccc; stroke:none;" d="M569 460L570 461L569 460M574 460L575 461L574 460z"/>
<path style="fill:#29385e; stroke:none;" d="M575 460L576 461L575 460M563 461L564 462L563 461M566 461L566 463L568 461L566 461M574.333 461.667L574.667 462.333L574.333 461.667M411 462L410 467L411 467L411 462M452 462L453 463L452 462M453 463L454 464L453 463M563 465L566 463L563 465z"/>
<path style="fill:#254692; stroke:none;" d="M411 464L412 465L411 464z"/>
<path style="fill:#29385e; stroke:none;" d="M454.333 464.667L454.667 465.333L454.333 464.667z"/>
<path style="fill:#254692; stroke:none;" d="M553 464L554 465L553 464z"/>
<path style="fill:#29385e; stroke:none;" d="M572 464L573 465L572 464z"/>
<path style="fill:#22bccc; stroke:none;" d="M411 465L412 466L411 465z"/>
<path style="fill:#29385e; stroke:none;" d="M561 465L562 466L561 465z"/>
<path style="fill:#22bccc; stroke:none;" d="M570 465L571 466L570 465z"/>
<path style="fill:#29385e; stroke:none;" d="M574 465L575 466L574 465M363 466L364 467L363 466M455 466L457 468L455 466M561 468L564 466L561 468z"/>
<path style="fill:#22bccc; stroke:none;" d="M569 466L570 467L569 466z"/>
<path style="fill:#29385e; stroke:none;" d="M571 466L573 468L571 466M364.333 467.667L364.667 468.333L364.333 467.667z"/>
<path style="fill:#22bccc; stroke:none;" d="M568 467L567 469L568 467z"/>
<path style="fill:#29385e; stroke:none;" d="M575 467L576 468L575 467M457 468L458 469L457 468M560 468L561 469L560 468M568 468L569 469L568 468M365 469L366 470L365 469M458 469L459 470L458 469M459 470L460 471L459 470z"/>
<path style="fill:#254692; stroke:none;" d="M552 470L553 471L552 470M554 470L552 475L553 475L554 470z"/>
<path style="fill:#29385e; stroke:none;" d="M567 470L566 475L567 475L570 470L567 470M366 471L367 472L366 471M460.333 471.667L460.667 472.333L460.333 471.667M565 471L563 475L564 475L565 471M571 471L572 472L571 471z"/>
<path style="fill:#22bccc; stroke:none;" d="M563 472L564 473L563 472z"/>
<path style="fill:#254692; stroke:none;" d="M650 472L651 473L650 472z"/>
<path style="fill:#29385e; stroke:none;" d="M461 473L462 474L461 473z"/>
<path style="fill:#22bccc; stroke:none;" d="M562 473L563 474L562 473z"/>
<path style="fill:#29385e; stroke:none;" d="M469 474L471 476L469 474z"/>
<path style="fill:#254692; stroke:none;" d="M554 474L555 475L554 474M556 474L557 475L556 474z"/>
<path style="fill:#29385e; stroke:none;" d="M567 476L568 478L568 479L567 479L566 477L562 480L566 475L562 475L559 479L559 483L558 483L559 480C554.501 482.424 551.113 486.818 551 492C545.613 492.967 527.558 509.734 526 515L574 517L574 516L556 516L556 515L568 515L568 514L560 514L560 513L567 513L567 512L564 512C569.749 500.711 572.524 486.548 571 474L567 476z"/>
<path style="fill:#254692; stroke:none;" d="M555 475L556 476L555 475M655 475L656 476L655 475M553 476L554 477L553 476z"/>
<path style="fill:#29385e; stroke:none;" d="M560 477L561 478L560 477M370 478L371 479L370 478M465 478L466 479L465 478z"/>
<path style="fill:#254692; stroke:none;" d="M553 478L554 479L553 478M653 478L654 479L653 478z"/>
<path style="fill:#29385e; stroke:none;" d="M466.333 479.667L466.667 480.333L466.333 479.667z"/>
<path style="fill:#254692; stroke:none;" d="M550 480L551 481L550 480M654 480L656 482L654 480z"/>
<path style="fill:#29385e; stroke:none;" d="M467 481L468 482L467 481z"/>
<path style="fill:#254692; stroke:none;" d="M546 481L546 482L549 482L549 481L546 481z"/>
<path style="fill:#22bccc; stroke:none;" d="M551 481L552 482L551 481z"/>
<path style="fill:#254692; stroke:none;" d="M645 481L646 482L645 481z"/>
<path style="fill:#29385e; stroke:none;" d="M468 482L469 483L468 482z"/>
<path style="fill:#254692; stroke:none;" d="M550 482L551 483L550 482M555 482L556 483L555 482z"/>
<path style="fill:#29385e; stroke:none;" d="M475 483L476 484L475 483z"/>
<path style="fill:#254692; stroke:none;" d="M544 483L545 484L544 483z"/>
<path style="fill:#22bccc; stroke:none;" d="M554 483L555 484L554 483z"/>
<path style="fill:#254692; stroke:none;" d="M556 483L557 484L556 483z"/>
<path style="fill:#29385e; stroke:none;" d="M469 484L470 485L469 484z"/>
<path style="fill:#254692; stroke:none;" d="M547 484L544 489L545 489L547 484z"/>
<path style="fill:#29385e; stroke:none;" d="M470.333 485.667L470.667 486.333L470.333 485.667M476 485L477 486L476 485z"/>
<path style="fill:#254692; stroke:none;" d="M554 485L554 486L559 488L554 485M649 485L653 489L654 488L654 487L653 486L649 485M547 486L548 487L547 486M552 486L553 487L552 486M642 486L643 487L642 486z"/>
<path style="fill:#29385e; stroke:none;" d="M471 487L472 488L471 487z"/>
<path style="fill:#254692; stroke:none;" d="M551 487L552 488L551 487M641 487L642 488L641 487M648 487L649 488L648 487z"/>
<path style="fill:#22bccc; stroke:none;" d="M652 487L653 488L652 487z"/>
<path style="fill:#29385e; stroke:none;" d="M376 488L377 489L376 488M472 488L473 489L472 488z"/>
<path style="fill:#22bccc; stroke:none;" d="M550 488L551 489L550 488z"/>
<path style="fill:#29385e; stroke:none;" d="M479 489L480 490L479 489z"/>
<path style="fill:#254692; stroke:none;" d="M538 489L539 490L538 489z"/>
<path style="fill:#22bccc; stroke:none;" d="M545 489L546 490L545 489z"/>
<path style="fill:#254692; stroke:none;" d="M640 489L641 490L640 489z"/>
<path style="fill:#29385e; stroke:none;" d="M377 490L378 491L377 490M473 490L474 491L473 490M480 490L482 492L480 490z"/>
<path style="fill:#254692; stroke:none;" d="M541 490L539 493L541 490M544 490L545 491L544 490M549 490L551 492L551 490L549 490M654 490L654 492L656 492L656 490L654 490M543 491L544 492L543 491M548 491L549 492L548 491M638 491L634 496L638 491M645 491C643.878 493.66 643.606 494.333 646 496L645 491z"/>
<path style="fill:#22bccc; stroke:none;" d="M547 492L548 493L547 492z"/>
<path style="fill:#254692; stroke:none;" d="M549 492L547 495L549 492M551 492L552 493L551 492z"/>
<path style="fill:#29385e; stroke:none;" d="M482.667 493.333L483.333 493.667L482.667 493.333M380 494L381 495L380 494M476 494L477 495L476 494z"/>
<path style="fill:#254692; stroke:none;" d="M646 494L648 496L648 494L646 494M650 494L650 496L653 496L653 494L650 494z"/>
<path style="fill:#29385e; stroke:none;" d="M381 495L382 496L381 495M477 495L478 496L477 495z"/>
<path style="fill:#254692; stroke:none;" d="M537 495L538 496L537 495M545 495L544 497L546 497L545 495M633 496L634 497L633 496M642 496L639 501L640 501L642 496M646 496L645 500L641 502L638 500L637 500C625.684 513.182 600.862 520.822 584 523L585 526L591 527L591 528L584 527L584 528L583.75 542.004L582 578L576 578L576 579C595.425 579.161 618.007 584.096 636 573L631 572L645 560L642 559C649.696 545.532 651.231 529.614 648.389 515C647.44 510.118 649.626 505.045 645 502L648 501L646 496z"/>
<path style="fill:#29385e; stroke:none;" d="M485 497L486 498L485 497z"/>
<path style="fill:#254692; stroke:none;" d="M543 497L544 498L543 497M632 497L633 498L632 497z"/>
<path style="fill:#29385e; stroke:none;" d="M390 498L391 499L390 498M479 498L480 499L479 498M486 498L488 500L488 498L486 498z"/>
<path style="fill:#254692; stroke:none;" d="M534 498L535 499L534 498M536 498L537 499L536 498z"/>
<path style="fill:#22bccc; stroke:none;" d="M542 498L541 500L542 498z"/>
<path style="fill:#254692; stroke:none;" d="M625 498L626 499L625 498z"/>
<path style="fill:#29385e; stroke:none;" d="M480 499L481 500L480 499z"/>
<path style="fill:#254692; stroke:none;" d="M535 499L536 500L535 499M542 499L543 500L542 499z"/>
<path style="fill:#29385e; stroke:none;" d="M481 500L482 501L481 500z"/>
<path style="fill:#22bccc; stroke:none;" d="M534 500L535 501L534 500z"/>
<path style="fill:#254692; stroke:none;" d="M625 500L624 503C626.158 502.022 626.501 501.812 625 500z"/>
<path style="fill:#29385e; stroke:none;" d="M482 501L483 502L482 501M512.667 501.333L513.333 501.667L512.667 501.333M483 502L484 503L483 502z"/>
<path style="fill:#254692; stroke:none;" d="M531 502L532 503L531 502M540 502L541 503L540 502z"/>
<path style="fill:#22bccc; stroke:none;" d="M636.667 502.333L637.333 502.667L636.667 502.333z"/>
<path style="fill:#29385e; stroke:none;" d="M484.333 503.667L484.667 504.333L484.333 503.667M492.667 503.333L493.333 503.667L492.667 503.333z"/>
<path style="fill:#ba2b89; stroke:none;" d="M530 503L531 504L530 503z"/>
<path style="fill:#22bccc; stroke:none;" d="M537 503L538 504L537 503z"/>
<path style="fill:#254692; stroke:none;" d="M622.667 503.333L623.333 503.667L622.667 503.333z"/>
<path style="fill:#22bccc; stroke:none;" d="M634 503L635 504L634 503z"/>
<path style="fill:#29385e; stroke:none;" d="M494 504L494 505L497 506L494 504z"/>
<path style="fill:#254692; stroke:none;" d="M535 506L538 504L535 506M619 506L622 504L619 506z"/>
<path style="fill:#22bccc; stroke:none;" d="M632.667 504.333L633.333 504.667L632.667 504.333M636.333 504.667L636.667 505.333L636.333 504.667z"/>
<path style="fill:#29385e; stroke:none;" d="M485.667 505.333L486.333 505.667L485.667 505.333z"/>
<path style="fill:#ba2b89; stroke:none;" d="M527 505L528 506L527 505z"/>
<path style="fill:#22bccc; stroke:none;" d="M631 505L632 506L631 505z"/>
<path style="fill:#29385e; stroke:none;" d="M402 506L403 507L402 506M487 506L488 510L492 516C497.735 512.242 490.869 507.934 487 506M498 506L501 508L498 506z"/>
<path style="fill:#ba2b89; stroke:none;" d="M525 506L526 507L525 506z"/>
<path style="fill:#254692; stroke:none;" d="M616 506L616 507L619 507L616 506M523 507L524 508L523 507z"/>
<path style="fill:#22bccc; stroke:none;" d="M628 507L629 508L628 507z"/>
<path style="fill:#29385e; stroke:none;" d="M501 508L501 509L506 510L501 508M514 508L515 509L514 508z"/>
<path style="fill:#ba2b89; stroke:none;" d="M521 508L522 509L521 508z"/>
<path style="fill:#254692; stroke:none;" d="M531 508L532 509L531 508M533 508L532 510L534 510L533 508z"/>
<path style="fill:#22bccc; stroke:none;" d="M626 508L627 509L626 508M629 508L630 509L629 508z"/>
<path style="fill:#ba2b89; stroke:none;" d="M492 509L493 510L492 509M502 509L503 510L502 509z"/>
<path style="fill:#29385e; stroke:none;" d="M512 509L511 511L512 509z"/>
<path style="fill:#254692; stroke:none;" d="M518 509L519 510L518 509z"/>
<path style="fill:#22bccc; stroke:none;" d="M519 509L520 510L519 509M529 509L530 510L529 509M612 509L613 510L612 509M624 509L625 510L624 509z"/>
<path style="fill:#29385e; stroke:none;" d="M489 510L490 511L489 510M506.667 510.333L507.333 510.667L506.667 510.333z"/>
<path style="fill:#ba2b89; stroke:none;" d="M516 510L517 511L516 510z"/>
<path style="fill:#22bccc; stroke:none;" d="M609 510L610 511L609 510M622 510L623 511L622 510M629 510L630 511L629 510M410 511L411 512L410 511z"/>
<path style="fill:#29385e; stroke:none;" d="M508 511L508 512L511 512L508 511z"/>
<path style="fill:#22bccc; stroke:none;" d="M606.667 511.333L607.333 511.667L606.667 511.333M620 511L621 512L620 511z"/>
<path style="fill:#29385e; stroke:none;" d="M601 512L602 513L601 512z"/>
<path style="fill:#22bccc; stroke:none;" d="M603 512L604 513L603 512M618 512L619 513L618 512z"/>
<path style="fill:#254692; stroke:none;" d="M495 513L496 514L495 513z"/>
<path style="fill:#29385e; stroke:none;" d="M596 513L597 514L596 513z"/>
<path style="fill:#22bccc; stroke:none;" d="M599.667 513.333L600.333 513.667L599.667 513.333z"/>
<path style="fill:#29385e; stroke:none;" d="M422.667 514.333L423.333 514.667L422.667 514.333z"/>
<path style="fill:#ba2b89; stroke:none;" d="M495 514L496 515L495 514z"/>
<path style="fill:#29385e; stroke:none;" d="M587 514L587 515L592 515L587 514z"/>
<path style="fill:#22bccc; stroke:none;" d="M594.667 514.333L595.333 514.667L594.667 514.333M613 514L614 515L613 514z"/>
<path style="fill:#29385e; stroke:none;" d="M476 515L476 516L487 516L476 515M490 515L491 516L490 515z"/>
<path style="fill:#ba2b89; stroke:none;" d="M494 515L495 516L494 515z"/>
<path style="fill:#254692; stroke:none;" d="M527 515L528 516L527 515z"/>
<path style="fill:#29385e; stroke:none;" d="M576 515L576 516L585 516L576 515z"/>
<path style="fill:#22bccc; stroke:none;" d="M588 515L589 516L588 515z"/>
<path style="fill:#29385e; stroke:none;" d="M463 516L464 517L463 516z"/>
<path style="fill:#22bccc; stroke:none;" d="M533 516L533 517L536 517L533 516z"/>
<path style="fill:#254692; stroke:none;" d="M536 516L536 517L541 517L536 516z"/>
<path style="fill:#22bccc; stroke:none;" d="M579.667 516.333L580.333 516.667L579.667 516.333M607 516L608 517L607 516z"/>
<path style="fill:#254692; stroke:none;" d="M694 516L695 517L694 516z"/>
<path style="fill:#22bccc; stroke:none;" d="M604 517L605 518L604 517z"/>
<path style="fill:#29385e; stroke:none;" d="M417 518L418 519L417 518z"/>
<path style="fill:#22bccc; stroke:none;" d="M600 518L601 519L600 518z"/>
<path style="fill:#29385e; stroke:none;" d="M605.667 518.333L606.333 518.667L605.667 518.333z"/>
<path style="fill:#22bccc; stroke:none;" d="M595 519L596 520L595 519M587 520L588 521L587 520z"/>
<path style="fill:#254692; stroke:none;" d="M588 520L588 521L591 521L588 520z"/>
<path style="fill:#29385e; stroke:none;" d="M440 522L440 523L484 523L484 526L470 526L470 527C476.615 528.579 481.733 527.834 482 536L485 536C484.874 546.635 477.466 552.465 481 564L480 564L480 561L479 561C474.002 579.133 456.599 579 440 579L440 580L584 580L584 579L576 579L576 578L582 578C580.491 566.781 583.129 553.092 583.903 541.718C584.211 537.185 588.071 531.557 584 528L584 527L591 528L591 527L584 523L596 521L573 521.911L528 522.394L512 531.056L493 522.213L440 522z"/>
<path style="fill:#254692; stroke:none;" d="M692 520L693 521L692 520z"/>
<path style="fill:#29385e; stroke:none;" d="M431 521L431 522L434 522L431 521z"/>
<path style="fill:#ba2b89; stroke:none;" d="M469 521L469 522L482 522L469 521z"/>
<path style="fill:#22bccc; stroke:none;" d="M482 521L483 522L482 521M534 521L534 522L544 522L534 521M567 521L567 522L573 522L567 521z"/>
<path style="fill:#254692; stroke:none;" d="M573 521L573 522L577 522L573 521M495 522L496 523L495 522M526 522L527 523L526 522M691 522L692 523L691 522z"/>
<path style="fill:#ba2b89; stroke:none;" d="M497 523L498 524L497 523z"/>
<path style="fill:#254692; stroke:none;" d="M524 523L525 524L524 523z"/>
<path style="fill:#29385e; stroke:none;" d="M337 524L338 525L337 524z"/>
<path style="fill:#254692; stroke:none;" d="M499 524L500 525L499 524z"/>
<path style="fill:#ba2b89; stroke:none;" d="M489.667 525.333L490.333 525.667L489.667 525.333z"/>
<path style="fill:#22bccc; stroke:none;" d="M501 525L502 526L501 525M521 525L522 526L521 525z"/>
<path style="fill:#254692; stroke:none;" d="M581 525L581 526L584 526L581 525M689 525L690 526L689 525z"/>
<path style="fill:#22bccc; stroke:none;" d="M504 527L505 528L504 527z"/>
<path style="fill:#254692; stroke:none;" d="M688 527L689 528L688 527z"/>
<path style="fill:#22bccc; stroke:none;" d="M517 528L518 529L517 528z"/>
<path style="fill:#254692; stroke:none;" d="M516 529L517 530L516 529M686.333 529.667L686.667 530.333L686.333 529.667M508 530L509 531L508 530z"/>
<path style="fill:#22bccc; stroke:none;" d="M514 530L515 531L514 530z"/>
<path style="fill:#254692; stroke:none;" d="M513 531L514 532L513 531M685 532L686 533L685 532M684 533L685 534L684 533M683 535L684 536L683 535z"/>
<path style="fill:#29385e; stroke:none;" d="M345 536L346 537L345 536z"/>
<path style="fill:#254692; stroke:none;" d="M682 536L683 537L682 536z"/>
<path style="fill:#29385e; stroke:none;" d="M348 540L349 541L348 540z"/>
<path style="fill:#254692; stroke:none;" d="M678 541L679 542L678 541z"/>
<path style="fill:#29385e; stroke:none;" d="M353 546L354 547L353 546M354 547L355 548L354 547M355 548L356 549L355 548M356 549L357 550L356 549M357 550L358 551L357 550z"/>
<path style="fill:#254692; stroke:none;" d="M668 552L669 553L668 552M664 556L665 557L664 556z"/>
<path style="fill:#29385e; stroke:none;" d="M365 557L366 558L365 557z"/>
<path style="fill:#254692; stroke:none;" d="M661 558L662 559L661 558M658 560L659 561L658 560z"/>
<path style="fill:#29385e; stroke:none;" d="M371 561L372 562L371 561M372 562L373 563L372 562z"/>
<path style="fill:#254692; stroke:none;" d="M655 562L656 563L655 562z"/>
<path style="fill:#29385e; stroke:none;" d="M374 563L375 564L374 563z"/>
<path style="fill:#254692; stroke:none;" d="M653 563L652 565L653 563z"/>
<path style="fill:#29385e; stroke:none;" d="M376 564L377 565L376 564M378 565L379 566L378 565z"/>
<path style="fill:#254692; stroke:none;" d="M648 565L649 566L648 565M650.667 565.333L651.333 565.667L650.667 565.333M649 566L650 567L649 566z"/>
<path style="fill:#29385e; stroke:none;" d="M383 568L384 569L383 568z"/>
<path style="fill:#254692; stroke:none;" d="M644.667 568.333L645.333 568.667L644.667 568.333z"/>
<path style="fill:#29385e; stroke:none;" d="M384 569L384 570L388 571L388 570L384 569z"/>
<path style="fill:#254692; stroke:none;" d="M635 569L633 570L633 571L635 569M642.667 569.333L643.333 569.667L642.667 569.333z"/>
<path style="fill:#22bccc; stroke:none;" d="M385 570L386 571L385 570z"/>
<path style="fill:#254692; stroke:none;" d="M637.667 570.333L638.333 570.667L637.667 570.333M640.667 570.333L641.333 570.667L640.667 570.333z"/>
<path style="fill:#29385e; stroke:none;" d="M389.667 571.333L390.333 571.667L389.667 571.333z"/>
<path style="fill:#254692; stroke:none;" d="M635 571L638 573L635 571M639 571L640 572L639 571z"/>
<path style="fill:#29385e; stroke:none;" d="M391 572L392 573L391 572M394 573L395 574L394 573z"/>
<path style="fill:#22bccc; stroke:none;" d="M628 573L629 574L628 573M632 573L633 574L632 573M631 574L630 576L632 576L631 574M633.667 574.333L634.333 574.667L633.667 574.333z"/>
<path style="fill:#29385e; stroke:none;" d="M399 575L400 576L399 575z"/>
<path style="fill:#22bccc; stroke:none;" d="M626 576L626 577L629 577L626 576z"/>
<path style="fill:#29385e; stroke:none;" d="M407 577L408 578L407 577z"/>
<path style="fill:#22bccc; stroke:none;" d="M623 577L624 578L623 577z"/>
<path style="fill:#29385e; stroke:none;" d="M413 578L413 579L416 579L413 578z"/>
<path style="fill:#254692; stroke:none;" d="M573 578L574 579L573 578z"/>
<path style="fill:#22bccc; stroke:none;" d="M618 578L618 579L621 579L618 578z"/>
<path style="fill:#29385e; stroke:none;" d="M424 579L424 580L438 580L424 579z"/>
<path style="fill:#22bccc; stroke:none;" d="M613 579L613 580L616 580L613 579M580 580L580 581L588 581L580 580M602 580L602 581L608 581L602 580z"/>
<path style="fill:#254692; stroke:none;" d="M341 643C330.827 643.444 334 659.898 334 667L334 733C334 739.541 331.262 751.8 337.228 756.397C346.469 763.517 369.124 757.983 380 758C384.799 758.007 391.842 759.969 393 754C397.62 750.673 394.696 745.621 394 741C383.558 734.554 368.803 737 357 737C359.695 728.723 357.003 719.51 357 711L357 668C357.002 662.184 358.97 655.713 357.458 650.005C356.212 645.299 342.162 636.396 341 643z"/>
<path style="fill:#29385e; stroke:none;" d="M343 641L343 642L347 642L343 641z"/>
<path style="fill:#22bccc; stroke:none;" d="M349 641L350 642L349 641M525 641L525 642L530 642L525 641z"/>
<path style="fill:#29385e; stroke:none;" d="M339.667 642.333L340.333 642.667L339.667 642.333z"/>
<path style="fill:#22bccc; stroke:none;" d="M521 642L522 643L521 642z"/>
<path style="fill:#29385e; stroke:none;" d="M522.667 642.333L523.333 642.667L522.667 642.333z"/>
<path style="fill:#254692; stroke:none;" d="M578 759L578 757L583 757L583 755L584 755L585 756L588 754L592 748L595 749C594.967 745.798 597.751 741.452 601 741L602 739L601 737L603 737L605 704L603 704L604 701L602 696L600 693L597 692L598 690L593 685L591 686L589 682L581 680C580.448 676.236 574.377 675.687 571 675C561.671 673.103 549.262 672.663 540 675L538 645L535 643L533 642L527 644C516.054 637.61 515 654.511 515 661L515 733C515 739.135 512.343 753.796 517.351 758.321C521.442 762.017 530.002 761 535 761C549.504 761 563.72 760.123 578 759z"/>
<path style="fill:#29385e; stroke:none;" d="M526 644L529 643L526 644M531 642L532 643L531 642z"/>
<path style="fill:#22bccc; stroke:none;" d="M336 643L337 644L336 643z"/>
<path style="fill:#29385e; stroke:none;" d="M343 643L344 644L343 643M352 643L355 645L355 644L352 643z"/>
<path style="fill:#22bccc; stroke:none;" d="M353 643L354 644L353 643M519 643L520 644L519 643z"/>
<path style="fill:#29385e; stroke:none;" d="M520 643L521 644L520 643M529 643L530 644L529 643M533 643L534 644L533 643M338 644L339 645L338 644z"/>
<path style="fill:#22bccc; stroke:none;" d="M517 644L518 645L517 644z"/>
<path style="fill:#29385e; stroke:none;" d="M519 644L520 645L519 644M522.667 644.333L523.333 644.667L522.667 644.333M534.667 644.333L535.333 644.667L534.667 644.333z"/>
<path style="fill:#22bccc; stroke:none;" d="M536 644L537 645L536 644M629 644L629 645L633 645L629 644z"/>
<path style="fill:#29385e; stroke:none;" d="M355 645L356 646L355 645z"/>
<path style="fill:#22bccc; stroke:none;" d="M516 645L517 646L516 645z"/>
<path style="fill:#29385e; stroke:none;" d="M518 645L519 646L518 645z"/>
<path style="fill:#22bccc; stroke:none;" d="M625 645L626 646L625 645z"/>
<path style="fill:#29385e; stroke:none;" d="M626.667 645.333L627.333 645.667L626.667 645.333z"/>
<path style="fill:#254692; stroke:none;" d="M628 671L639 669L644 662C644.221 658.863 644.996 655.946 643.483 653.004C635.132 636.769 607.851 649.5 619.525 664.97C621.77 667.945 625.021 669.057 628 671z"/>
<path style="fill:#29385e; stroke:none;" d="M631 645L632 646L631 645z"/>
<path style="fill:#22bccc; stroke:none;" d="M635 645L636 646L635 645M334 646L335 647L334 646M356 646L357 647L356 646z"/>
<path style="fill:#29385e; stroke:none;" d="M537 646L538 650L539 650L537 646z"/>
<path style="fill:#22bccc; stroke:none;" d="M538 646L539 647L538 646M622 646L623 647L622 646z"/>
<path style="fill:#29385e; stroke:none;" d="M636 646L637 647L636 646z"/>
<path style="fill:#22bccc; stroke:none;" d="M638 646L639 647L638 646z"/>
<path style="fill:#29385e; stroke:none;" d="M356 647L357 648L356 647z"/>
<path style="fill:#22bccc; stroke:none;" d="M621 647L622 648L621 647M357 648L358 649L357 648M515 648L515 651L516 651L515 648z"/>
<path style="fill:#29385e; stroke:none;" d="M640 648L641 649L640 648z"/>
<path style="fill:#22bccc; stroke:none;" d="M539.333 649.667L539.667 650.333L539.333 649.667M619 649L620 650L619 649z"/>
<path style="fill:#29385e; stroke:none;" d="M641 649L644 653L641 649z"/>
<path style="fill:#22bccc; stroke:none;" d="M618 650L619 651L618 650z"/>
<path style="fill:#29385e; stroke:none;" d="M357.333 651.667L357.667 652.333L357.333 651.667z"/>
<path style="fill:#22bccc; stroke:none;" d="M643 651L644 652L643 651M669 651L670 652L669 651z"/>
<path style="fill:#254692; stroke:none;" d="M668 652L667 674C661.258 674.263 654.192 676.218 653.434 683.039C652.214 694.034 664.53 689.865 667.397 696.184C672.904 708.323 665.979 726.704 669.746 739.999C671.077 744.695 673.912 752.005 679 753L679 756L681 755L684 757L685 760L698 763L704 762L706 761L706 759L707 759L708 760L713 755L712 753C717.614 748.944 714.432 738.907 707.714 737.692C704.506 737.112 701.15 739.472 698.105 738.018C695.068 736.567 693.809 732.833 691 731L693 692L707 693L710 690L710 677C704.946 674.169 697.721 675.923 693.434 672.972C688.922 669.867 690.945 659.43 692 655L689 652L668 652z"/>
<path style="fill:#29385e; stroke:none;" d="M671 651L671 652L684 652L671 651z"/>
<path style="fill:#22bccc; stroke:none;" d="M685 651L686 652L685 651z"/>
<path style="fill:#29385e; stroke:none;" d="M622 652L623 653L622 652M687 652L688 653L687 652z"/>
<path style="fill:#22bccc; stroke:none;" d="M644 653L645 654L644 653z"/>
<path style="fill:#29385e; stroke:none;" d="M668.333 653.667L668.667 654.333L668.333 653.667M689 653L690 654L689 653z"/>
<path style="fill:#22bccc; stroke:none;" d="M358 654L358 680L359 680L358 654z"/>
<path style="fill:#29385e; stroke:none;" d="M643 654L643 657L644 657L643 654M690 654L691 655L690 654z"/>
<path style="fill:#22bccc; stroke:none;" d="M616 655L616 659L617 659L616 655M667 655L667 666L668 666L667 655z"/>
<path style="fill:#29385e; stroke:none;" d="M691 656L691 672L692 672L691 656z"/>
<path style="fill:#22bccc; stroke:none;" d="M644 658L645 659L644 658z"/>
<path style="fill:#29385e; stroke:none;" d="M357 659L357 720L358 720L358 679L357 659M617 659L618 660L617 659M643.333 659.667L643.667 660.333L643.333 659.667z"/>
<path style="fill:#22bccc; stroke:none;" d="M617 661L618 662L617 661z"/>
<path style="fill:#29385e; stroke:none;" d="M642 661L640 666L642 661z"/>
<path style="fill:#22bccc; stroke:none;" d="M643 662L644 663L643 662M333 664L333 747L334 747L334 690L333 664M642 664L643 665L642 664M619 665L620 666L619 665M641 665L642 666L641 665M620 666L621 667L620 666z"/>
<path style="fill:#29385e; stroke:none;" d="M639 666L640 667L639 666z"/>
<path style="fill:#22bccc; stroke:none;" d="M621 667L622 668L621 667z"/>
<path style="fill:#29385e; stroke:none;" d="M623 667L624 668L623 667M637 668L632 670L632 671L638 669L637 668z"/>
<path style="fill:#22bccc; stroke:none;" d="M624 669L625 670L624 669z"/>
<path style="fill:#29385e; stroke:none;" d="M626.667 669.333L627.333 669.667L626.667 669.333z"/>
<path style="fill:#22bccc; stroke:none;" d="M637 669L638 670L637 669M627 670L628 671L627 670z"/>
<path style="fill:#29385e; stroke:none;" d="M629.667 670.333L630.333 670.667L629.667 670.333z"/>
<path style="fill:#22bccc; stroke:none;" d="M635 670L636 671L635 670M445 672L445 673L449 673L445 672z"/>
<path style="fill:#254692; stroke:none;" d="M437 759L437 761L471 759L470 757L473 758L475 757L474 755L477 756L492 742L495 732L497 732C497.291 725.166 502.024 709.123 496 704L496 699L493 694L491 691C483.385 684.718 477.882 677.984 468 674.749C440.551 665.765 409.871 680.751 404.467 710.004C401.319 727.042 409.757 742.779 423.252 752.611C427.737 755.879 431.121 759.351 437 759z"/>
<path style="fill:#22bccc; stroke:none;" d="M456 672L456 673L459 673L456 672z"/>
<path style="fill:#29385e; stroke:none;" d="M458 673L459 674L458 673z"/>
<path style="fill:#22bccc; stroke:none;" d="M463 673L464 674L463 673M666 673L667 674L666 673M435 674L436 675L435 674M467 674L468 675L467 674M540.667 674.333L541.333 674.667L540.667 674.333M568.667 674.333L569.333 674.667L568.667 674.333M661 674L662 675L661 674z"/>
<path style="fill:#29385e; stroke:none;" d="M691 674L692 675L691 674z"/>
<path style="fill:#22bccc; stroke:none;" d="M705 674L706 675L705 674M432 675L433 676L432 675z"/>
<path style="fill:#29385e; stroke:none;" d="M434 675L435 676L434 675z"/>
<path style="fill:#22bccc; stroke:none;" d="M573 675L574 676L573 675M658 675L659 676L658 675M707 675L708 676L707 675z"/>
<path style="fill:#29385e; stroke:none;" d="M431 676L432 677L431 676z"/>
<path style="fill:#22bccc; stroke:none;" d="M472 676L473 677L472 676M577 676L578 677L577 676M656 676L657 677L656 676M474 677L475 678L474 677M579 677L580 678L579 677M655 677L654 679L655 677M426 678L427 679L426 678M476 678L477 679L476 678M582 678L583 679L582 678M626 678L626 679L630 679L626 678z"/>
<path style="fill:#29385e; stroke:none;" d="M655 678L656 679L655 678z"/>
<path style="fill:#22bccc; stroke:none;" d="M704 678L705 679L704 678z"/>
<path style="fill:#29385e; stroke:none;" d="M709 678L710 679L709 678z"/>
<path style="fill:#22bccc; stroke:none;" d="M478 679L479 680L478 679z"/>
<path style="fill:#29385e; stroke:none;" d="M581.667 679.333L582.333 679.667L581.667 679.333z"/>
<path style="fill:#22bccc; stroke:none;" d="M584 679L585 680L584 679M622 679L623 680L622 679z"/>
<path style="fill:#254692; stroke:none;" d="M624 758L627 760L630 759L633 761C633 758.146 634.686 759.33 637 760L636 758L637 758C640.751 757.354 642.354 755.751 643 752C647.334 748.213 643.931 739.94 643.289 735C641.778 723.364 644.275 710.814 643.985 699C643.874 694.437 643.949 687.79 640 685L635 679L620 681L620 699L620 749L624 758z"/>
<path style="fill:#29385e; stroke:none;" d="M625 679L625 680L634 680L625 679z"/>
<path style="fill:#22bccc; stroke:none;" d="M635 679L636 680L635 679M706 679L707 680L706 679z"/>
<path style="fill:#29385e; stroke:none;" d="M710 679L711 680L710 679M477 680L478 681L477 680z"/>
<path style="fill:#22bccc; stroke:none;" d="M479 680L480 681L479 680M586 680L588 682L586 680z"/>
<path style="fill:#29385e; stroke:none;" d="M634 680L634 681L638 682L638 681L634 680z"/>
<path style="fill:#22bccc; stroke:none;" d="M637 680L638 681L637 680M653.333 680.667L653.667 681.333L653.333 680.667M421 681L422 682L421 681z"/>
<path style="fill:#29385e; stroke:none;" d="M586 681L587 682L586 681z"/>
<path style="fill:#22bccc; stroke:none;" d="M639 681L640 682L639 681M711 681L711 685L712 685L711 681M420 682L421 683L420 682M482 682L484 684L482 682z"/>
<path style="fill:#29385e; stroke:none;" d="M587 682L588 683L587 682M634 682L635 683L634 682M482 683L483 684L482 683M588.667 683.333L589.333 683.667L588.667 683.333z"/>
<path style="fill:#22bccc; stroke:none;" d="M590 683L591 684L590 683M619 683L620 684L619 683M591 684L592 685L591 684z"/>
<path style="fill:#29385e; stroke:none;" d="M640 684L641 685L640 684z"/>
<path style="fill:#22bccc; stroke:none;" d="M641 684L642 685L641 684M485 685L486 686L485 685z"/>
<path style="fill:#29385e; stroke:none;" d="M591 685L592 686L591 685M418 686L419 687L418 686M483 686L484 687L483 686M593 686L594 687L593 686z"/>
<path style="fill:#22bccc; stroke:none;" d="M619.333 686.667L619.667 687.333L619.333 686.667M642 686L643 687L642 686M653.333 686.667L653.667 687.333L653.333 686.667M487 687L488 688L487 687z"/>
<path style="fill:#29385e; stroke:none;" d="M515 687L516 688L515 687z"/>
<path style="fill:#22bccc; stroke:none;" d="M358 688L358 712L359 712L358 688M488 688L489 689L488 688z"/>
<path style="fill:#29385e; stroke:none;" d="M709 688L710 689L709 688z"/>
<path style="fill:#22bccc; stroke:none;" d="M413 689L414 690L413 689z"/>
<path style="fill:#29385e; stroke:none;" d="M488 689L489 690L488 689M596 689L597 690L596 689z"/>
<path style="fill:#22bccc; stroke:none;" d="M654 689L655 690L654 689z"/>
<path style="fill:#29385e; stroke:none;" d="M708.333 689.667L708.667 690.333L708.333 689.667z"/>
<path style="fill:#22bccc; stroke:none;" d="M412 690L413 691L412 690z"/>
<path style="fill:#29385e; stroke:none;" d="M489 690L490 691L489 690z"/>
<path style="fill:#22bccc; stroke:none;" d="M643 690L643 694L644 694L643 690M655 690L656 691L655 690z"/>
<path style="fill:#29385e; stroke:none;" d="M706 690L707 691L706 690M597 691L599 693L597 691z"/>
<path style="fill:#22bccc; stroke:none;" d="M598 691L599 692L598 691M656 691L657 692L656 691M708 691L709 692L708 691z"/>
<path style="fill:#29385e; stroke:none;" d="M490 692L492 694L490 692z"/>
<path style="fill:#22bccc; stroke:none;" d="M491 692L492 693L491 692z"/>
<path style="fill:#29385e; stroke:none;" d="M596 692L597 693L596 692z"/>
<path style="fill:#22bccc; stroke:none;" d="M658 692L659 693L658 692z"/>
<path style="fill:#29385e; stroke:none;" d="M693.667 692.333L694.333 692.667L693.667 692.333M698 692L698 693L706 693L698 692z"/>
<path style="fill:#22bccc; stroke:none;" d="M410 693L411 694L410 693M661.667 693.333L662.333 693.667L661.667 693.333M664 693L664 694L667 694L664 693M692 693L692 694L699 694L692 693z"/>
<path style="fill:#29385e; stroke:none;" d="M445 694L446 695L445 694z"/>
<path style="fill:#22bccc; stroke:none;" d="M448 694L448 695L456 695L448 694M488 694L489 695L488 694z"/>
<path style="fill:#29385e; stroke:none;" d="M489 694L490 695L489 694M599 694L600 697L601 697L599 694z"/>
<path style="fill:#22bccc; stroke:none;" d="M600 694L601 695L600 694M667 694L667 729L668 729L667 694M409 695L410 696L409 695M443 695L444 696L443 695z"/>
<path style="fill:#fbfdfc; stroke:none;" d="M444 695.613C415.564 703.282 431.134 746.124 459 738.646C487.405 731.023 471.97 688.071 444 695.613z"/>
<path style="fill:#29385e; stroke:none;" d="M492 695L494 697L492 695z"/>
<path style="fill:#22bccc; stroke:none;" d="M493 695L494 696L493 695M539 695L539 696L542 696L539 695M544 695L544 696L562 696L544 695z"/>
<path style="fill:#29385e; stroke:none;" d="M565 695L565 696L568 696L565 695z"/>
<path style="fill:#22bccc; stroke:none;" d="M437 696L438 697L437 696M441 696L442 697L441 696M461 696L462 697L461 696z"/>
<path style="fill:#fbfdfc; stroke:none;" d="M540 696L540 738C549.443 738 563.661 740.677 571.96 735.517C584.545 727.692 584.483 704.667 570.996 697.839C562.561 693.569 549.254 696 540 696z"/>
<path style="fill:#22bccc; stroke:none;" d="M568 696L569 697L568 696M408 697L409 698L408 697z"/>
<path style="fill:#29385e; stroke:none;" d="M437.667 697.333L438.333 697.667L437.667 697.333z"/>
<path style="fill:#22bccc; stroke:none;" d="M462 697L463 698L462 697M494 697L495 698L494 697M570 697L571 698L570 697M464 698L465 699L464 698z"/>
<path style="fill:#29385e; stroke:none;" d="M494 698L495 699L494 698z"/>
<path style="fill:#22bccc; stroke:none;" d="M572 698L573 699L572 698M602 698L603 699L602 698M407 699L408 700L407 699M436 699L437 700L436 699M574 699L575 700L574 699z"/>
<path style="fill:#29385e; stroke:none;" d="M602.333 699.667L602.667 700.333L602.333 699.667M434 700L433 702L434 700z"/>
<path style="fill:#22bccc; stroke:none;" d="M435 700L436 701L435 700z"/>
<path style="fill:#29385e; stroke:none;" d="M495 700L496 701L495 700z"/>
<path style="fill:#22bccc; stroke:none;" d="M575 700L576 701L575 700M603 700L604 701L603 700M406 701L407 702L406 701M434 701L435 702L434 701M496 701L497 702L496 701M576 701L577 702L576 701z"/>
<path style="fill:#29385e; stroke:none;" d="M432 702L433 703L432 702z"/>
<path style="fill:#22bccc; stroke:none;" d="M577.333 702.667L577.667 703.333L577.333 702.667z"/>
<path style="fill:#29385e; stroke:none;" d="M603.333 702.667L603.667 703.333L603.333 702.667M406 703L407 704L406 703z"/>
<path style="fill:#22bccc; stroke:none;" d="M469 703L470 704L469 703z"/>
<path style="fill:#29385e; stroke:none;" d="M496 703L497 704L496 703z"/>
<path style="fill:#22bccc; stroke:none;" d="M604 703L605 704L604 703M405.333 704.667L405.667 705.333L405.333 704.667z"/>
<path style="fill:#29385e; stroke:none;" d="M431 704L430 706L431 704z"/>
<path style="fill:#22bccc; stroke:none;" d="M470 704L471 705L470 704M578 704L579 705L578 704M431 705L432 706L431 705M471 706L472 707L471 706M579 706L580 707L579 706z"/>
<path style="fill:#29385e; stroke:none;" d="M604.333 706.667L604.667 707.333L604.333 706.667M429.333 707.667L429.667 708.333L429.333 707.667z"/>
<path style="fill:#22bccc; stroke:none;" d="M430 707L431 708L430 707M605.333 707.667L605.667 708.333L605.333 707.667M404.333 708.667L404.667 709.333L404.333 708.667M472 708L473 709L472 708z"/>
<path style="fill:#29385e; stroke:none;" d="M497 708L498 709L497 708z"/>
<path style="fill:#22bccc; stroke:none;" d="M498.333 708.667L498.667 709.333L498.333 708.667M580 709L581 710L580 709z"/>
<path style="fill:#29385e; stroke:none;" d="M428 710L428 713L429 713L428 710z"/>
<path style="fill:#22bccc; stroke:none;" d="M473.333 710.667L473.667 711.333L473.333 710.667z"/>
<path style="fill:#29385e; stroke:none;" d="M605 710L605 726L606 726L605 710M498 712L498 723L499 723L498 712z"/>
<path style="fill:#22bccc; stroke:none;" d="M581 712L581 720L582 720L581 712M428 714L428 720L429 720L428 714z"/>
<path style="fill:#29385e; stroke:none;" d="M427 715L427 719L428 719L427 715z"/>
<path style="fill:#22bccc; stroke:none;" d="M474 715L474 722L475 722L474 715M606 717L606 721L607 721L606 717z"/>
<path style="fill:#29385e; stroke:none;" d="M428 722L429 723L428 722M643 722L643 737L644 737L643 722z"/>
<path style="fill:#22bccc; stroke:none;" d="M429 723L430 724L429 723M580.333 723.667L580.667 724.333L580.333 723.667M404.333 724.667L404.667 725.333L404.333 724.667z"/>
<path style="fill:#29385e; stroke:none;" d="M691 724L691 728L692 728L691 724M429 725L430 726L429 725z"/>
<path style="fill:#22bccc; stroke:none;" d="M430.333 725.667L430.667 726.333L430.333 725.667M473 725L474 726L473 725M498 725L499 726L498 725M472.333 726.667L472.667 727.333L472.333 726.667M579 726L580 727L579 726M431 727L432 728L431 727M358.333 728.667L358.667 729.333L358.333 728.667M405.333 728.667L405.667 729.333L405.333 728.667z"/>
<path style="fill:#29385e; stroke:none;" d="M497 728L498 729L497 728z"/>
<path style="fill:#22bccc; stroke:none;" d="M578 728L579 729L578 728M432 729L433 730L432 729M497 729L498 730L497 729z"/>
<path style="fill:#29385e; stroke:none;" d="M604 729L605 730L604 729M691.333 729.667L691.667 730.333L691.333 729.667z"/>
<path style="fill:#22bccc; stroke:none;" d="M470 730L471 731L470 730z"/>
<path style="fill:#29385e; stroke:none;" d="M496 730L497 731L496 730z"/>
<path style="fill:#22bccc; stroke:none;" d="M577 730L578 731L577 730M692 730L693 731L692 730M469 731L470 732L469 731M539 731L539 737L540 737L539 731M576 731L577 732L576 731M604 731L605 732L604 731z"/>
<path style="fill:#29385e; stroke:none;" d="M495 732L496 733L495 732z"/>
<path style="fill:#22bccc; stroke:none;" d="M496 732L497 733L496 732z"/>
<path style="fill:#29385e; stroke:none;" d="M603 732L604 733L603 732z"/>
<path style="fill:#22bccc; stroke:none;" d="M693 732L694 733L693 732M435 733L436 734L435 733M407 734L408 735L407 734M495 734L496 735L495 734M573 734L574 735L573 734M603 734L604 735L603 734M668 734L668 737L669 737L668 734M694 734L695 735L694 734z"/>
<path style="fill:#29385e; stroke:none;" d="M436 735L437 736L436 735z"/>
<path style="fill:#22bccc; stroke:none;" d="M465 735L466 736L465 735M572 735L573 736L572 735z"/>
<path style="fill:#29385e; stroke:none;" d="M602 735L603 736L602 735z"/>
<path style="fill:#22bccc; stroke:none;" d="M357.667 736.333L358.333 736.667L357.667 736.333M408 736L409 737L408 736z"/>
<path style="fill:#29385e; stroke:none;" d="M493 736L491 741L492 741L493 736z"/>
<path style="fill:#22bccc; stroke:none;" d="M494 736L495 737L494 736M570 736L571 737L570 736M695 736L696 737L695 736M384 737L384 738L387 738L384 737z"/>
<path style="fill:#29385e; stroke:none;" d="M440 737L441 738L440 737z"/>
<path style="fill:#22bccc; stroke:none;" d="M441 737L442 738L441 737M462 737L463 738L462 737z"/>
<path style="fill:#29385e; stroke:none;" d="M463 737L464 738L463 737M601 737L602 738L601 737z"/>
<path style="fill:#22bccc; stroke:none;" d="M704 737L705 738L704 737M708 737L709 738L708 737M390 738L391 739L390 738M409 738L410 739L409 738z"/>
<path style="fill:#29385e; stroke:none;" d="M442 738L443 739L442 738z"/>
<path style="fill:#22bccc; stroke:none;" d="M444 738L445 739L444 738M493 738L494 739L493 738z"/>
<path style="fill:#29385e; stroke:none;" d="M542.667 738.333L543.333 738.667L542.667 738.333z"/>
<path style="fill:#22bccc; stroke:none;" d="M552 738L552 739L564 739L552 738z"/>
<path style="fill:#29385e; stroke:none;" d="M567 738L568 739L567 738z"/>
<path style="fill:#22bccc; stroke:none;" d="M644 738L644 742L645 742L644 738M701 738L702 739L701 738z"/>
<path style="fill:#29385e; stroke:none;" d="M709 738L710 739L709 738z"/>
<path style="fill:#22bccc; stroke:none;" d="M392 739L394 741L392 739M410 739L411 740L410 739z"/>
<path style="fill:#29385e; stroke:none;" d="M444.667 739.333L445.333 739.667L444.667 739.333z"/>
<path style="fill:#22bccc; stroke:none;" d="M448.667 739.333L449.333 739.667L448.667 739.333M454.667 739.333L455.333 739.667L454.667 739.333z"/>
<path style="fill:#29385e; stroke:none;" d="M600 739L601 740L600 739z"/>
<path style="fill:#22bccc; stroke:none;" d="M669 739L670 740L669 739z"/>
<path style="fill:#29385e; stroke:none;" d="M698.667 739.333L699.333 739.667L698.667 739.333z"/>
<path style="fill:#22bccc; stroke:none;" d="M712 739L713 740L712 739z"/>
<path style="fill:#29385e; stroke:none;" d="M392 740L393 741L392 740M451 740L451 741L454 741L451 740z"/>
<path style="fill:#22bccc; stroke:none;" d="M492 740L493 741L492 740z"/>
<path style="fill:#29385e; stroke:none;" d="M599 740L598 744L599 744L599 740z"/>
<path style="fill:#22bccc; stroke:none;" d="M713 740L714 741L713 740M411 741L412 742L411 741z"/>
<path style="fill:#29385e; stroke:none;" d="M393 742L395 744L393 742z"/>
<path style="fill:#22bccc; stroke:none;" d="M394 742L395 743L394 742z"/>
<path style="fill:#29385e; stroke:none;" d="M490 742L488 745L490 742z"/>
<path style="fill:#22bccc; stroke:none;" d="M599 742L600 743L599 742M670 742L671 743L670 742z"/>
<path style="fill:#29385e; stroke:none;" d="M713 742L715 744L713 742z"/>
<path style="fill:#22bccc; stroke:none;" d="M714 742L715 743L714 742M490 743L491 744L490 743M395.333 744.667L395.667 745.333L395.333 744.667z"/>
<path style="fill:#29385e; stroke:none;" d="M414 744L417 747L414 744z"/>
<path style="fill:#22bccc; stroke:none;" d="M489 744L490 745L489 744z"/>
<path style="fill:#29385e; stroke:none;" d="M596 744L594 748L598 744L596 744z"/>
<path style="fill:#22bccc; stroke:none;" d="M414 745L415 746L414 745M488 745L489 746L488 745M671 745L672 746L671 745M415 746L416 747L415 746M596 746L597 747L596 746z"/>
<path style="fill:#29385e; stroke:none;" d="M714 746L715 747L714 746z"/>
<path style="fill:#22bccc; stroke:none;" d="M416 747L417 748L416 747M595 747L596 748L595 747z"/>
<path style="fill:#29385e; stroke:none;" d="M673 747L674 748L673 747z"/>
<path style="fill:#22bccc; stroke:none;" d="M333.333 748.667L333.667 749.333L333.333 748.667z"/>
<path style="fill:#29385e; stroke:none;" d="M395.333 748.667L395.667 749.333L395.333 748.667z"/>
<path style="fill:#22bccc; stroke:none;" d="M417 748L418 749L417 748z"/>
<path style="fill:#29385e; stroke:none;" d="M592.667 748.333L593.333 748.667L592.667 748.333z"/>
<path style="fill:#22bccc; stroke:none;" d="M673 748L674 749L673 748M418 749L419 750L418 749z"/>
<path style="fill:#29385e; stroke:none;" d="M482.333 749.667L482.667 750.333L482.333 749.667z"/>
<path style="fill:#22bccc; stroke:none;" d="M593 749L594 750L593 749M620.333 749.667L620.667 750.333L620.333 749.667z"/>
<path style="fill:#29385e; stroke:none;" d="M674 749L675 750L674 749z"/>
<path style="fill:#22bccc; stroke:none;" d="M419 750L420 751L419 750z"/>
<path style="fill:#29385e; stroke:none;" d="M590 750L591 751L590 750z"/>
<path style="fill:#22bccc; stroke:none;" d="M674 750L675 751L674 750z"/>
<path style="fill:#29385e; stroke:none;" d="M422 751L425 754L422 751M589 751L587 752L587 753L589 751z"/>
<path style="fill:#22bccc; stroke:none;" d="M395 752L396 753L395 752M422 752L423 753L422 752z"/>
<path style="fill:#29385e; stroke:none;" d="M480 752L481 753L480 752z"/>
<path style="fill:#22bccc; stroke:none;" d="M481 752L482 753L481 752M589 752L590 753L589 752z"/>
<path style="fill:#29385e; stroke:none;" d="M643 752L644 753L643 752M713 752L712 754L713 752z"/>
<path style="fill:#22bccc; stroke:none;" d="M334 753L335 754L334 753M423 753L424 754L423 753z"/>
<path style="fill:#29385e; stroke:none;" d="M515 753L516 754L515 753M586 753L584 754L584 755L586 753z"/>
<path style="fill:#22bccc; stroke:none;" d="M621 753L622 754L621 753z"/>
<path style="fill:#29385e; stroke:none;" d="M622.333 753.667L622.667 754.333L622.333 753.667M642 753L643 754L642 753M678 753L679 754L678 753z"/>
<path style="fill:#22bccc; stroke:none;" d="M713 753L714 754L713 753z"/>
<path style="fill:#29385e; stroke:none;" d="M393 754L394 755L393 754z"/>
<path style="fill:#22bccc; stroke:none;" d="M394 754L395 755L394 754z"/>
<path style="fill:#29385e; stroke:none;" d="M476.667 754.333L477.333 754.667L476.667 754.333z"/>
<path style="fill:#22bccc; stroke:none;" d="M478 754L479 755L478 754M586 754L587 755L586 754M678 754L679 755L678 754M426 755L428 757L426 755z"/>
<path style="fill:#29385e; stroke:none;" d="M427 755L428 756L427 755M474.667 755.333L475.333 755.667L474.667 755.333M583 755L584 756L583 755z"/>
<path style="fill:#22bccc; stroke:none;" d="M622 755L623 756L622 755M642 755L643 756L642 755z"/>
<path style="fill:#29385e; stroke:none;" d="M680 755L681 756L680 755z"/>
<path style="fill:#22bccc; stroke:none;" d="M712 755L713 756L712 755z"/>
<path style="fill:#29385e; stroke:none;" d="M338 756L339 757L338 756M473 756L474 757L473 756z"/>
<path style="fill:#22bccc; stroke:none;" d="M475 756L476 757L475 756M515 756L516 757L515 756M518 756L519 757L518 756z"/>
<path style="fill:#29385e; stroke:none;" d="M581 756L582 757L581 756z"/>
<path style="fill:#22bccc; stroke:none;" d="M623 756L624 757L623 756z"/>
<path style="fill:#29385e; stroke:none;" d="M624 756L625 757L624 756M639 756L638 758L639 756z"/>
<path style="fill:#22bccc; stroke:none;" d="M641 756L642 757L641 756M680 756L681 757L680 756z"/>
<path style="fill:#29385e; stroke:none;" d="M707 759L711 756L707 759z"/>
<path style="fill:#22bccc; stroke:none;" d="M711 756L712 757L711 756M337 757L338 758L337 757M429 757L430 758L429 757z"/>
<path style="fill:#29385e; stroke:none;" d="M470.667 757.333L471.333 757.667L470.667 757.333z"/>
<path style="fill:#22bccc; stroke:none;" d="M473 757L474 758L473 757z"/>
<path style="fill:#29385e; stroke:none;" d="M578 757L579 758L578 757z"/>
<path style="fill:#22bccc; stroke:none;" d="M580 757L581 758L580 757M640 757L641 758L640 757z"/>
<path style="fill:#29385e; stroke:none;" d="M683 757L684 758L683 757z"/>
<path style="fill:#22bccc; stroke:none;" d="M710 757L711 758L710 757M339 758L340 759L339 758z"/>
<path style="fill:#29385e; stroke:none;" d="M340 758L340 759L350 759L340 758M368 758L368 759L389 759L368 758z"/>
<path style="fill:#22bccc; stroke:none;" d="M390 758L391 759L390 758M431 758L432 759L431 758z"/>
<path style="fill:#29385e; stroke:none;" d="M467 760L470 759L467 760z"/>
<path style="fill:#22bccc; stroke:none;" d="M471 758L472 759L471 758M516 758L517 759L516 758z"/>
<path style="fill:#29385e; stroke:none;" d="M576 758L577 759L576 758z"/>
<path style="fill:#22bccc; stroke:none;" d="M578 758L579 759L578 758M625 758L626 759L625 758z"/>
<path style="fill:#29385e; stroke:none;" d="M626.667 758.333L627.333 758.667L626.667 758.333M636.667 758.333L637.333 758.667L636.667 758.333z"/>
<path style="fill:#22bccc; stroke:none;" d="M683 758L684 759L683 758z"/>
<path style="fill:#29385e; stroke:none;" d="M685 758L686 759L685 758z"/>
<path style="fill:#22bccc; stroke:none;" d="M709 758L710 759L709 758M433 759L434 760L433 759z"/>
<path style="fill:#29385e; stroke:none;" d="M435.667 759.333L436.333 759.667L435.667 759.333z"/>
<path style="fill:#22bccc; stroke:none;" d="M468 759L469 760L468 759z"/>
<path style="fill:#29385e; stroke:none;" d="M519 759L520 760L519 759M521 759L522 760L521 759M523 759L523 760L526 760L523 759M572.667 759.333L573.333 759.667L572.667 759.333z"/>
<path style="fill:#22bccc; stroke:none;" d="M575 759L576 760L575 759z"/>
<path style="fill:#29385e; stroke:none;" d="M628.667 759.333L629.333 759.667L628.667 759.333M632 759L632 760L636 760L632 759M686 759L686 760L690 761L690 760L686 759M706 759L707 760L706 759z"/>
<path style="fill:#22bccc; stroke:none;" d="M436 760L437 761L436 760z"/>
<path style="fill:#29385e; stroke:none;" d="M439 760L440 761L439 760M462 760L462 761L465 761L462 760z"/>
<path style="fill:#22bccc; stroke:none;" d="M466 760L467 761L466 760M521.667 760.333L522.333 760.667L521.667 760.333z"/>
<path style="fill:#29385e; stroke:none;" d="M557 760L557 761L568 761L557 760z"/>
<path style="fill:#22bccc; stroke:none;" d="M571 760L572 761L571 760M629 760L630 761L629 760M633.667 760.333L634.333 760.667L633.667 760.333M687 760L688 761L687 760z"/>
<path style="fill:#29385e; stroke:none;" d="M704 760L705 761L704 760z"/>
<path style="fill:#22bccc; stroke:none;" d="M706 760L707 761L706 760M440.667 761.333L441.333 761.667L440.667 761.333z"/>
<path style="fill:#29385e; stroke:none;" d="M443 761L443 762L446 762L443 761M456 761L456 762L460 762L456 761z"/>
<path style="fill:#22bccc; stroke:none;" d="M461.667 761.333L462.333 761.667L461.667 761.333M690 761L691 762L690 761z"/>
<path style="fill:#29385e; stroke:none;" d="M692 761L692 762L695 762L692 761M698 761L698 762L702 762L698 761z"/>
<path style="fill:#22bccc; stroke:none;" d="M446 762L446 763L451 763L446 762M453 762L453 763L457 763L453 762M694.667 762.333L695.333 762.667L694.667 762.333M698 762L698 763L701 763L698 762M0 994L0 1014L6 1013L6 1024L7 1024L6 994L0 994z"/>
<path style="fill:#254692; stroke:none;" d="M5 1013L0 1014L0 1024L6 1024L5 1013z"/>
<path style="fill:#29385e; stroke:none;" d="M5 1014L6 1015L5 1014z"/>
</svg>
